<?xml version="1.0" standalone="no"?><!DOCTYPE svg PUBLIC "-//W3C//DTD SVG 1.1//EN" "http://www.w3.org/Graphics/SVG/1.1/DTD/svg11.dtd"><svg t="1700295472392" class="icon" viewBox="0 0 1024 1024" version="1.1" xmlns="http://www.w3.org/2000/svg" p-id="4045" width="16" height="16" xmlns:xlink="http://www.w3.org/1999/xlink"><path d="M819.2 512a25.6 25.6 0 1 1 51.2 0v332.8a128 128 0 0 1-128 128h-563.2A128 128 0 0 1 51.2 844.8v-563.2A128 128 0 0 1 179.2 153.6H512a25.6 25.6 0 1 1 0 51.2H179.2A76.8 76.8 0 0 0 102.4 281.6v563.2A76.8 76.8 0 0 0 179.2 921.6h563.2a76.8 76.8 0 0 0 76.8-76.8V512z m102.4-373.76L390.7584 668.9792a25.6 25.6 0 0 1-36.1984-36.1984L884.992 102.4H640a25.6 25.6 0 1 1 0-51.2h256A76.8 76.8 0 0 1 972.8 128v256a25.6 25.6 0 1 1-51.2 0V138.24z" fill="#4C6FFF" p-id="4046"></path></svg>