<?xml version="1.0" standalone="no"?><!DOCTYPE svg PUBLIC "-//W3C//DTD SVG 1.1//EN" "http://www.w3.org/Graphics/SVG/1.1/DTD/svg11.dtd"><svg t="1700296781471" class="icon" viewBox="0 0 1024 1024" version="1.1" xmlns="http://www.w3.org/2000/svg" p-id="6458" xmlns:xlink="http://www.w3.org/1999/xlink" width="16" height="16"><path d="M0 0h1024v1024H0z" fill="#000000" fill-opacity="0" p-id="6459"></path><path d="M146.202 864C100.803 864 64 827.212 64 781.831V725.47l159.996-0.001 0.004-501.494C224 188.642 252.654 160 288 160h608c35.346 0 64 28.642 64 63.974v87.676H832v465.56c0 46.87-37.197 85.18-83.886 86.753L146.202 864z" fill="#000000" fill-opacity=".461" p-id="6460"></path><path d="M746.667 864H146.202C100.803 864 64 827.212 64 781.831V725.47h608v63.894C672 830.584 705.43 864 746.667 864zM896 160c35.346 0 64 28.642 64 63.974v87.676H832v-87.676C832 188.642 860.654 160 896 160z" fill="#000000" fill-opacity=".18" p-id="6461"></path><path d="M298 279m8 0l427 0q8 0 8 8l0 238q0 8-8 8l-427 0q-8 0-8-8l0-238q0-8 8-8Z" fill="#000000" fill-opacity=".574" p-id="6462"></path><path d="M298 573m4 0l435 0q4 0 4 4l0 16q0 4-4 4l-435 0q-4 0-4-4l0-16q0-4 4-4Z" fill="#000000" fill-opacity=".574" p-id="6463"></path><path d="M298 637m4 0l435 0q4 0 4 4l0 16q0 4-4 4l-435 0q-4 0-4-4l0-16q0-4 4-4Z" fill="#000000" fill-opacity=".574" p-id="6464"></path></svg>